<svg width="214" height="32" viewBox="0 0 214 32" fill="none" xmlns="http://www.w3.org/2000/svg">
<path d="M31.9996 11.6445V23.278C31.9996 24.8211 31.3866 26.3009 30.2955 27.392C29.2044 28.4831 27.7245 29.0961 26.1814 29.0961V17.4599C26.1821 15.9174 26.7954 14.4382 27.8865 13.3477C28.9775 12.2571 30.457 11.6445 31.9996 11.6445Z" fill="white"/>
<path d="M23.2724 0V26.1787C23.2724 27.7218 22.6595 29.2016 21.5684 30.2928C20.4773 31.3839 18.9974 31.9969 17.4543 31.9969V5.81814C17.4543 4.27508 18.0674 2.79523 19.1585 1.70412C20.2496 0.613018 21.7294 0 23.2724 0Z" fill="white"/>
<path d="M40.7268 14.5453V20.3525C40.7268 21.8956 40.1137 23.3754 39.0226 24.4665C37.9315 25.5576 36.4517 26.1706 34.9087 26.1706V20.3525C34.9094 18.8099 35.5227 17.3308 36.6137 16.2402C37.7048 15.1497 39.1842 14.5371 40.7268 14.5371V14.5453Z" fill="white"/>
<path d="M14.5451 2.90918V14.5454C14.5444 16.088 13.9311 17.5672 12.8401 18.6577C11.749 19.7482 10.2696 20.3608 8.72705 20.3608V8.72732C8.72705 7.18426 9.33994 5.70441 10.431 4.6133C11.5221 3.5222 13.0021 2.90918 14.5451 2.90918Z" fill="white"/>
<path d="M5.81821 5.81836V11.6446C5.81748 13.1872 5.20418 14.6664 4.11315 15.7569C3.02212 16.8474 1.54259 17.46 0 17.46V11.6446C0 10.1015 0.613018 8.6217 1.70412 7.53059C2.79523 6.43948 4.27515 5.82653 5.81821 5.82653V5.81836Z" fill="white"/>
<path d="M65.2183 31.4037V0H71.1181V31.4037H65.2183ZM70.269 16.9318V13.2391H76.8899C78.3412 13.2391 79.4025 12.8571 80.0737 12.0934C80.745 11.3296 81.0843 10.3109 81.0915 9.03737C81.0915 7.76744 80.7522 6.74878 80.0737 5.98138C79.3952 5.21397 78.334 4.8321 76.8899 4.83573H70.269V0H76.3374C79.846 0 82.5129 0.735683 84.3379 2.20699C86.163 3.6783 87.0756 5.78547 87.0756 8.52853V9.12447C87.0756 11.0493 86.6157 12.5841 85.6959 13.7289C84.7061 14.9154 83.3765 15.7702 81.8861 16.178C80.0801 16.7002 78.2063 16.9506 76.3265 16.9209L70.269 16.9318ZM70.269 31.4037V26.5652H78.0355C79.4506 26.5652 80.5255 26.1788 81.2603 25.3978C81.995 24.6168 82.365 23.5527 82.365 22.1948C82.365 20.8369 81.9978 19.7837 81.2603 19.0326C80.5228 18.2816 79.4506 17.9088 78.0355 17.9088H70.269V14.216H77.6164C79.4889 14.1895 81.355 14.4398 83.1543 14.9589C84.6501 15.3727 85.9811 16.2397 86.9641 17.4407C87.8839 18.6018 88.3437 20.1584 88.3437 22.1104V22.7037C88.3437 24.5432 87.94 26.1062 87.1327 27.3925C86.2665 28.7316 85.0069 29.7696 83.527 30.3641C81.9269 31.0589 79.9531 31.4055 77.6056 31.4037H70.269Z" fill="white"/>
<path d="M105.918 31.997C104.075 32.0333 102.243 31.7021 100.53 31.0227C99.0442 30.4207 97.6998 29.5172 96.5811 28.3695C95.5184 27.2759 94.6856 25.9805 94.1319 24.5597C93.5862 23.1524 93.3092 21.6552 93.3155 20.1458V19.2641C93.3092 17.7151 93.605 16.1797 94.1864 14.744C94.7651 13.3233 95.6154 12.0291 96.6899 10.9342C97.8163 9.79223 99.1673 8.89623 100.658 8.30274C102.333 7.64622 104.121 7.3227 105.92 7.35029C107.72 7.32242 109.508 7.64595 111.184 8.30274C112.674 8.89623 114.025 9.79223 115.151 10.9342C116.223 12.0271 117.068 13.3221 117.636 14.744C118.202 16.1834 118.49 17.7172 118.485 19.2641V20.1539C118.488 21.6643 118.206 23.1618 117.655 24.5679C117.102 25.9893 116.269 27.2849 115.206 28.3777C114.086 29.5249 112.742 30.4282 111.257 31.0309C109.559 31.7039 107.744 32.0323 105.918 31.997ZM105.918 26.949C107.201 26.9917 108.469 26.6598 109.567 25.9938C110.551 25.3652 111.333 24.4656 111.817 23.4031C112.343 22.2374 112.604 20.9699 112.582 19.6913C112.607 18.3962 112.338 17.1123 111.796 15.936C111.295 14.8714 110.5 13.9725 109.504 13.3453C108.426 12.6879 107.18 12.3562 105.918 12.3901C104.655 12.3566 103.41 12.6883 102.331 13.3453C101.334 13.9762 100.532 14.8735 100.018 15.936C99.4592 17.1078 99.1797 18.3933 99.2016 19.6913C99.1785 20.9723 99.4475 22.2416 99.9881 23.4031C100.484 24.464 101.271 25.3623 102.258 25.9938C103.359 26.6618 104.631 26.9938 105.918 26.949Z" fill="white"/>
<path d="M124.719 31.1916V8.14773H129.386V17.9036H129.258C129.258 14.5908 129.966 12.0863 131.381 10.3901C132.796 8.6938 134.876 7.8457 137.621 7.8457H138.47V12.9807H136.856C134.875 12.9807 133.34 13.5114 132.252 14.5727C131.163 15.634 130.619 17.1688 130.619 19.1771V31.1862L124.719 31.1916Z" fill="white"/>
<path d="M153.619 31.9967C151.833 32.0367 150.06 31.6894 148.421 30.9789C147.004 30.3513 145.742 29.4172 144.729 28.244C143.76 27.1128 143.012 25.8105 142.522 24.4043C142.031 23.0136 141.779 21.5496 141.779 20.0747V19.2584C141.776 17.7486 142.027 16.249 142.522 14.8226C143.003 13.4215 143.753 12.1274 144.729 11.0128C145.733 9.87293 146.97 8.96094 148.356 8.33787C149.934 7.6465 151.644 7.3066 153.366 7.34184C155.853 7.34184 157.94 7.8861 159.625 8.97461C161.272 10.0171 162.593 11.5025 163.435 13.2606C164.288 15.0441 164.723 16.9984 164.708 18.9753V21.0979H144.299V17.4895H161.021L159.195 19.272C159.227 17.9837 159.011 16.7013 158.558 15.4948C158.182 14.5075 157.508 13.6619 156.629 13.0756C155.654 12.4794 154.524 12.1841 153.382 12.2265C152.215 12.1894 151.062 12.499 150.071 13.1164C149.139 13.7429 148.421 14.6393 148.013 15.6853C147.516 16.9628 147.278 18.3262 147.311 19.6965C147.288 21.0083 147.519 22.3121 147.991 23.5362C148.403 24.6031 149.128 25.5205 150.071 26.1677C151.003 26.8045 152.191 27.1228 153.635 27.1228C155.08 27.1228 156.259 26.8326 157.173 26.252C157.995 25.7749 158.614 25.013 158.912 24.1104H164.355C164.044 25.6317 163.375 27.0571 162.403 28.2686C161.422 29.4724 160.162 30.4194 158.732 31.0279C157.115 31.7055 155.373 32.0356 153.619 31.9967Z" fill="white"/>
<path d="M177.216 31.7819C175.703 31.8134 174.203 31.5085 172.823 30.8893C171.62 30.3443 170.602 29.4589 169.895 28.3422C169.175 27.1389 168.814 25.7545 168.856 24.3528C168.856 22.6583 169.273 21.2723 170.107 20.1946C171.022 19.0643 172.246 18.224 173.629 17.7754C175.346 17.2032 177.148 16.9271 178.957 16.959H184.304V20.4804H178.862C177.505 20.4804 176.465 20.8133 175.743 21.4791C175.387 21.8029 175.106 22.1999 174.918 22.6429C174.73 23.0859 174.64 23.5643 174.655 24.0453C174.638 24.5237 174.727 24.9998 174.916 25.4399C175.104 25.8801 175.386 26.2735 175.743 26.5924C176.469 27.2437 177.508 27.5693 178.862 27.5693C179.642 27.5772 180.415 27.4253 181.134 27.123C181.855 26.8009 182.462 26.2677 182.873 25.5937C183.341 24.868 183.603 23.8856 183.659 22.6465L185.102 24.3011C185.016 25.7307 184.617 27.124 183.934 28.383C183.322 29.4631 182.407 30.3409 181.303 30.9083C180.03 31.5231 178.628 31.8227 177.216 31.7819ZM184.642 31.1859V24.3528H183.668V16.7577C183.668 15.4279 183.342 14.4373 182.691 13.7861C182.039 13.1348 181.035 12.8091 179.678 12.8091C178.971 12.8091 178.122 12.8254 177.131 12.8526C176.141 12.8798 175.142 12.9152 174.138 12.9588C173.134 13.0023 172.233 13.0513 171.441 13.1057V8.1067C172.092 8.05228 172.828 7.99601 173.648 7.93795C174.468 7.8799 175.31 7.84455 176.173 7.83185C177.035 7.81734 177.851 7.81006 178.622 7.81006C180.997 7.81006 182.97 8.12124 184.541 8.74351C186.023 9.29385 187.278 10.3247 188.106 11.6716C188.915 13.0032 189.319 14.7439 189.317 16.8937V31.1941L184.642 31.1859Z" fill="white"/>
<path d="M194.106 4.62331V0.214844H202.891V4.62876L194.106 4.62331ZM196.994 31.1912V0.214844H202.891V31.1967L196.994 31.1912Z" fill="white"/>
<path d="M210.938 6.23731C210.486 6.24303 210.038 6.15016 209.626 5.96518C209.265 5.80481 208.941 5.5703 208.676 5.27675C208.427 4.99925 208.233 4.67696 208.105 4.32703C207.979 3.99473 207.914 3.64271 207.912 3.28748V3.11873C207.911 2.75744 207.979 2.39931 208.11 2.0629C208.243 1.71584 208.441 1.39723 208.693 1.12407C208.958 0.835073 209.282 0.605153 209.642 0.449198C210.052 0.275834 210.493 0.190489 210.938 0.198795C211.381 0.19071 211.822 0.276053 212.23 0.449198C212.591 0.605153 212.914 0.835073 213.18 1.12407C213.433 1.39712 213.631 1.71571 213.765 2.0629C213.895 2.39983 213.961 2.75773 213.961 3.11873V3.28748C213.959 3.64244 213.894 3.99427 213.771 4.32703C213.641 4.67708 213.446 4.99936 213.196 5.27675C212.932 5.57091 212.608 5.80553 212.247 5.96518C211.835 6.14986 211.389 6.24272 210.938 6.23731ZM210.938 5.69305C211.386 5.70363 211.828 5.58763 212.214 5.35834C212.572 5.14356 212.865 4.83612 213.063 4.46847C213.267 4.08882 213.37 3.6638 213.365 3.23307C213.372 2.79518 213.269 2.36257 213.063 1.9758C212.867 1.60885 212.573 1.30358 212.214 1.09411C211.827 0.867882 211.386 0.752114 210.938 0.759396C210.49 0.749282 210.048 0.86121 209.659 1.08321C209.299 1.29268 209.005 1.59795 208.81 1.96491C208.604 2.35167 208.5 2.78429 208.508 3.22217C208.502 3.65291 208.606 4.07799 208.81 4.45764C209.007 4.82529 209.301 5.13273 209.659 5.34751C210.045 5.5777 210.488 5.69463 210.938 5.68495V5.69305ZM209.694 4.82498V1.5132H210.481V4.82498H209.694ZM210.067 3.82629V3.15686H210.979C211.133 3.17148 211.286 3.12671 211.409 3.03169C211.455 2.98391 211.49 2.92704 211.513 2.86474C211.536 2.80243 211.546 2.73602 211.542 2.66974C211.548 2.60291 211.539 2.53561 211.516 2.47262C211.492 2.40963 211.456 2.35245 211.409 2.30507C211.285 2.21224 211.132 2.16859 210.979 2.18262H210.067V1.5132H210.927C211.297 1.49117 211.664 1.5958 211.966 1.80984C212.091 1.91411 212.19 2.04626 212.254 2.19564C212.318 2.34503 212.347 2.50742 212.336 2.66974C212.345 2.83114 212.317 2.99239 212.252 3.14072C212.188 3.28905 212.09 3.42035 211.966 3.5242C211.665 3.74198 211.298 3.84875 210.927 3.82629H210.067ZM211.648 4.82498L210.788 3.55144H211.604L212.516 4.82498H211.648Z" fill="white"/>
</svg>
