<svg width="32" height="32" viewBox="0 0 32 32" fill="none" xmlns="http://www.w3.org/2000/svg">
<circle cx="16" cy="16" r="16" fill="white"/>
<mask id="mask0_386_7150" style="mask-type:alpha" maskUnits="userSpaceOnUse" x="0" y="0" width="32" height="32">
<circle cx="16" cy="16" r="16" fill="white"/>
</mask>
<g mask="url(#mask0_386_7150)">
<path d="M21.1436 12.4693C20.7781 12.2569 20.3081 12.2569 19.8903 12.4693L16.9661 14.2216L14.9817 15.3367L12.1097 17.089C11.7441 17.3014 11.2742 17.3014 10.8564 17.089L8.61097 15.7084C8.24543 15.496 7.98433 15.0712 7.98433 14.5933V11.9383C7.98433 11.5135 8.19321 11.0887 8.61097 10.8232L10.8564 9.49571C11.2219 9.2833 11.6919 9.2833 12.1097 9.49571L14.3551 10.8763C14.7206 11.0887 14.9817 11.5135 14.9817 11.9914V13.7437L16.9661 12.5755V10.7701C16.9661 10.3453 16.7572 9.92051 16.3394 9.65501L12.1619 7.1593C11.7963 6.9469 11.3264 6.9469 10.9086 7.1593L6.62663 9.70811C6.20888 9.92051 6 10.3453 6 10.7701V15.7615C6 16.1863 6.20888 16.6111 6.62663 16.8766L10.8564 19.3723C11.2219 19.5847 11.6919 19.5847 12.1097 19.3723L14.9817 17.6731L16.9661 16.5049L19.8381 14.8057C20.2037 14.5933 20.6736 14.5933 21.0914 14.8057L23.3368 16.1332C23.7023 16.3456 23.9634 16.7704 23.9634 17.2483V19.9033C23.9634 20.3281 23.7546 20.7529 23.3368 21.0184L21.1436 22.3459C20.7781 22.5583 20.3081 22.5583 19.8903 22.3459L17.6449 21.0184C17.2794 20.806 17.0183 20.3812 17.0183 19.9033V18.2041L15.0339 19.3723V21.1246C15.0339 21.5494 15.2428 21.9742 15.6606 22.2397L19.8903 24.7354C20.2559 24.9478 20.7258 24.9478 21.1436 24.7354L25.3734 22.2397C25.7389 22.0273 26 21.6025 26 21.1246V16.0801C26 15.6553 25.7911 15.2305 25.3734 14.965L21.1436 12.4693Z" fill="#20C2FF"/>
</g>
</svg>
